<svg id="Capa_1" enable-background="new 0 0 512 512" height="512" viewBox="0 0 512 512" width="512" xmlns="http://www.w3.org/2000/svg" xmlns:xlink="http://www.w3.org/1999/xlink"><linearGradient id="SVGID_1_" gradientUnits="userSpaceOnUse" x1="256" x2="256" y1="512" y2="0"><stop offset="0" stop-color="#5558ff"/><stop offset="1" stop-color="#00c0ff"/></linearGradient><g><g><g><path d="m383.5 285c0 8.284 6.716 15 15 15h60c8.284 0 15-6.716 15-15 0-74.439-60.561-135-135-135h-17.58c-6.192-17.459-22.865-30-42.42-30h-15v-32.58c12.764-4.527 22.893-14.656 27.42-27.42h47.58c8.284 0 15-6.716 15-15s-6.716-15-15-15h-47.58c-6.192-17.459-22.865-30-42.42-30s-36.228 12.541-42.42 30h-47.58c-8.284 0-15 6.716-15 15s6.716 15 15 15h47.58c4.527 12.764 14.656 22.893 27.42 27.42v32.58h-15c-19.555 0-36.228 12.541-42.42 30h-17.58c-57.897 0-105 47.103-105 105v227h-15c-8.284 0-15 6.716-15 15s6.716 15 15 15h120c8.284 0 15-6.716 15-15s-6.716-15-15-15h-15v-227c0-8.271 6.729-15 15-15h17.58c6.192 17.459 22.865 30 42.42 30h60c19.555 0 36.228-12.541 42.42-30h17.58c24.813 0 45 20.187 45 45zm-210-75h-15c-24.813 0-45 20.187-45 45v227h-30v-227c0-41.355 33.645-75 75-75h15zm75-180c8.271 0 15 6.729 15 15s-6.729 15-15 15-15-6.729-15-15 6.729-15 15-15zm45 195c0 8.271-6.729 15-15 15h-60c-8.271 0-15-6.729-15-15v-60c0-8.271 6.729-15 15-15h60c8.271 0 15 6.729 15 15zm30-15v-30h15c52.805 0 96.631 39.183 103.932 90h-30.438c-6.969-34.191-37.274-60-73.493-60zm116.164 124.982c-2.845-3.171-6.904-4.982-11.164-4.982s-8.319 1.811-11.164 4.982c-16.242 18.095-48.836 58.983-48.836 85.018 0 33.084 26.916 60 60 60s60-26.916 60-60c0-25.921-32.735-67.08-48.836-85.018zm-11.164 115.018c-16.542 0-30-13.458-30-30 0-9.559 14.095-31.886 29.994-51.767 15.941 19.989 30.006 42.475 30.006 51.767 0 16.542-13.458 30-30 30z" fill="url(#SVGID_1_)"/></g></g></g></svg>